<svg fill="#fff" xmlns="http://www.w3.org/2000/svg"  viewBox="0 0 50 50" width="50px" height="50px"><path d="M 35.6875 2 C 35.460938 2.03125 35.25 2.144531 35.09375 2.3125 L 9.09375 28.28125 C 8.996094 28.390625 8.917969 28.515625 8.875 28.65625 L 2.0625 46.65625 C 1.929688 47.019531 2.019531 47.429688 2.296875 47.703125 C 2.570313 47.980469 2.980469 48.070313 3.34375 47.9375 L 21.34375 41.125 C 21.484375 41.082031 21.609375 41.003906 21.71875 40.90625 L 23 39.625 C 23.238281 39.523438 23.429688 39.332031 23.53125 39.09375 L 47.6875 14.90625 C 47.984375 14.664063 48.121094 14.277344 48.035156 13.902344 C 47.949219 13.53125 47.65625 13.238281 47.285156 13.152344 C 46.910156 13.066406 46.523438 13.203125 46.28125 13.5 L 22.34375 37.40625 C 21.625 37.074219 20.527344 36.703125 19.125 36.75 C 19.289063 36.304688 19.535156 36.039063 19.625 35.5 C 19.84375 34.199219 19.726563 32.601563 18.5625 31.4375 C 17.394531 30.269531 15.785156 30.160156 14.46875 30.40625 C 14.003906 30.492188 13.777344 30.730469 13.375 30.875 C 13.390625 30.734375 13.433594 30.710938 13.4375 30.5625 C 13.460938 29.695313 13.257813 28.621094 12.59375 27.65625 L 36.5 3.71875 C 36.796875 3.433594 36.886719 2.992188 36.726563 2.613281 C 36.570313 2.234375 36.191406 1.992188 35.78125 2 C 35.75 2 35.71875 2 35.6875 2 Z M 11.09375 29.15625 C 11.34375 29.613281 11.449219 30.058594 11.4375 30.5 C 11.421875 31.179688 11.203125 31.765625 11.0625 32.15625 C 10.910156 32.578125 11.054688 33.046875 11.417969 33.308594 C 11.78125 33.570313 12.273438 33.558594 12.625 33.28125 C 12.910156 33.058594 13.863281 32.550781 14.8125 32.375 C 15.761719 32.199219 16.605469 32.292969 17.15625 32.84375 C 17.710938 33.398438 17.816406 34.246094 17.65625 35.1875 C 17.496094 36.128906 17.003906 37.082031 16.8125 37.34375 C 16.535156 37.695313 16.523438 38.1875 16.785156 38.550781 C 17.046875 38.914063 17.515625 39.058594 17.9375 38.90625 C 19.207031 38.519531 20.195313 38.65625 20.875 38.875 L 20.40625 39.34375 L 9.375 43.53125 L 6.5 40.625 L 10.65625 29.59375 Z"/></svg>